<?xml version="1.0" encoding="UTF-8" standalone="no"?>
<svg
   xmlns:dc="http://purl.org/dc/elements/1.1/"
   xmlns:cc="http://creativecommons.org/ns#"
   xmlns:rdf="http://www.w3.org/1999/02/22-rdf-syntax-ns#"
   xmlns:svg="http://www.w3.org/2000/svg"
   xmlns="http://www.w3.org/2000/svg"
   xmlns:sodipodi="http://sodipodi.sourceforge.net/DTD/sodipodi-0.dtd"
   xmlns:inkscape="http://www.inkscape.org/namespaces/inkscape"
   viewBox="0 0 280.73758 383.84326"
   id="svg54"
   height="383.84326"
   width="280.73758"
   version="1.1"
   sodipodi:docname="anhanguera-logo.svg"
   inkscape:version="0.92.2 (5c3e80d, 2017-08-06)">
  <sodipodi:namedview
     pagecolor="#ffffff"
     bordercolor="#666666"
     borderopacity="1"
     objecttolerance="10"
     gridtolerance="10"
     guidetolerance="10"
     inkscape:pageopacity="0"
     inkscape:pageshadow="2"
     inkscape:window-width="1600"
     inkscape:window-height="837"
     id="namedview32"
     showgrid="false"
     fit-margin-top="0"
     fit-margin-left="0"
     fit-margin-right="0"
     fit-margin-bottom="0"
     inkscape:zoom="1.1212869"
     inkscape:cx="-34.888747"
     inkscape:cy="144.33642"
     inkscape:window-x="-8"
     inkscape:window-y="-8"
     inkscape:window-maximized="1"
     inkscape:current-layer="svg54" />
  <metadata
     id="metadata60">
    <rdf:RDF>
      <cc:Work
         rdf:about="">
        <dc:format>image/svg+xml</dc:format>
        <dc:type
           rdf:resource="http://purl.org/dc/dcmitype/StillImage" />
        <dc:title></dc:title>
      </cc:Work>
    </rdf:RDF>
  </metadata>
  <defs
     id="defs58" />
  <g
     id="Layer1000"
     transform="matrix(0.50506448,0,0,0.50506448,-30.419578,-10.298427)"
     inkscape:export-filename="C:\Users\suitedoalex\sites\anhanguera-logo-15.png"
     inkscape:export-xdpi="23.013086"
     inkscape:export-ydpi="23.013086">
    <path
       id="path2"
       style="fill:#ffffff;fill-rule:evenodd"
       d="m 344.0055,373.1941 v -13.1998 h 27 v 13.1998 z"
       inkscape:connector-curvature="0" />
    <path
       id="path4"
       style="fill:#e74114;fill-rule:evenodd"
       d="m 373.568,409.2072 c 2.3828,4.7911 15.5858,28.4165 16.8066,32.7399 0.6123,2.1687 -2.3655,5.2772 -5.868,5.3747 H 301.818 219.3693 c -10.2558,0 -4.8427,-12.541 -0.4221,-13.4932 23.1894,-7.592 47.4519,-13.7089 72.017,-18.3656 25.5781,-4.8484 50.9493,-7.8415 76.375,-9.561 l -3e-4,-0.006 c 3.1269,-0.2114 5.2608,1.3643 6.2291,3.3112 z"
       inkscape:connector-curvature="0" />
    <path
       id="path6"
       style="fill:#f49200;fill-rule:evenodd"
       d="m 269.5269,338.8453 c 9.1681,-17.8611 18.7081,-35.3137 28.2835,-52.9908 l -0.008,-0.0122 c 0.9564,-1.7167 3.9997,-2.3468 5.7478,-1.4077 0.7248,0.3892 1.2589,0.9873 1.5681,1.6764 l 15.6858,25.7241 0.0114,-0.006 c 0.9564,1.7166 0.3146,3.8701 -1.4332,4.8092 -0.2206,0.1185 -0.4485,0.2115 -0.6792,0.2812 -18.6472,6.7417 -31.6865,11.0115 -49.176,21.926 z"
       inkscape:connector-curvature="0" />
    <path
       id="path8"
       style="fill:#ea5a0e;fill-rule:evenodd"
       d="m 286.8914,377.731 c -4.8935,9.4978 -9.5825,19.4695 -15.5534,29.0126 -1.1345,1.8133 -3.7214,5.8297 -6.1135,6.2643 -14.0389,3.3913 -27.8399,7.2785 -41.8422,10.6067 0.7968,-3.6647 9.7653,-19.8412 12.2442,-23.387 2.3018,-3.2925 3.8197,-4.5062 6.2164,-5.6169 12.4203,-5.7563 31.3092,-13.7262 45.0485,-16.8797 z m 61.7626,-10.6515 c 5.9126,8.2865 11.3661,17.2619 16.4795,26.7494 l 0.0117,-0.006 c 0.9564,1.7167 0.3146,3.8702 -1.4335,4.8093 -0.5205,0.2795 -1.0803,0.4198 -1.635,0.434 -4.8351,0.3719 -10.872,0.7727 -15.2717,1.2018 -4.4079,0.4298 -9.8909,0.3666 -14.7467,0.9431 l 3e-4,0.003 c -1.6186,0.1922 -3.6839,-0.7004 -4.3058,-2.0953 l -13.9606,-24.2635 -0.0117,0.006 c -0.9561,-1.7167 -0.8815,-3.5867 0.8666,-4.5258 0.3761,-0.2021 0.7721,-0.3314 1.173,-0.3929 4.4903,-1.0052 11.1619,-1.9301 15.4766,-2.7734 4.3866,-0.8578 8.8707,-1.3856 13.4512,-2.1498 l -0.001,-0.007 c 1.665,-0.2775 3.2575,0.6137 3.9072,2.0664 z"
       inkscape:connector-curvature="0" />
    <path
       id="path10"
       style="fill:#ee7105;fill-rule:evenodd"
       d="m 327.6558,326.0582 15.5285,27.36 0.0116,-0.006 c 1.1356,2.3349 0.6183,3.7715 -2.8406,4.3798 -32.3107,4.3827 -70.2068,14.5593 -96.7223,27.1222 2.2119,-5.4683 15.1804,-29.3514 21.1742,-33.9659 11.882,-9.1468 50.1673,-25.4653 58.3226,-26.7792 l -0.002,-0.01 c 1.7952,-0.6384 3.7695,0.2086 4.5283,1.8989 z"
       inkscape:connector-curvature="0" />
    <g
       id="Layer1001">
      <path
         id="path12"
         style="fill:#3a3a3a;fill-rule:evenodd"
         d="m 140.8351,533.5362 h -9.4232 l -15.4182,-53.5927 -15.4182,53.5927 h -9.4232 l 20.1297,-69.9699 0.9294,-3.2303 h 7.5646 l 0.9292,3.2303 z"
         inkscape:connector-curvature="0" />
      <path
         id="path14"
         style="fill:#3a3a3a;fill-rule:evenodd"
         d="m 102.0753,516.361 v -7.3499 h 27.15 v 7.3499 z"
         inkscape:connector-curvature="0" />
      <path
         id="path16"
         style="fill:#3a3a3a;fill-rule:evenodd"
         d="m 145.6747,533.5362 h 9.4005 v -45.0043 h -9.4005 z"
         inkscape:connector-curvature="0" />
      <path
         id="path18"
         style="fill:#3a3a3a;fill-rule:evenodd"
         d="m 170.5748,533.5362 h 9.4005 v -38.8503 h -9.4005 z"
         inkscape:connector-curvature="0" />
      <path
         id="path20"
         style="fill:#3a3a3a;fill-rule:evenodd"
         d="m 179.9753,491.955 v 14.8813 c 0,2.0569 -1.6928,3.7497 -3.7496,3.7497 h -5.6509 v -16.4171 c 0,-6.6626 -15.4996,-4.9161 -15.4996,-1.1495 v 17.5666 h -5.6508 c -2.0611,0 -3.7497,-1.6872 -3.7497,-3.7497 v -19.1332 c 0,-5.2807 34.3006,-9.3722 34.3006,4.2519 z"
         inkscape:connector-curvature="0" />
      <path
         id="path22"
         style="fill:#3a3a3a;fill-rule:evenodd"
         d="m 188.7248,533.5362 h 9.4005 V 460.336 h -5.8034 c -1.9786,0 -3.5971,1.6177 -3.5971,3.5971 z"
         inkscape:connector-curvature="0" />
      <path
         id="path24"
         style="fill:#3a3a3a;fill-rule:evenodd"
         d="m 256.7914,532.3792 c 2.5078,-0.6133 5.834,-2.6188 5.834,-5.1471 v -20.9476 -11.8751 -4.3312 c 0,-11.4956 -32.0329,-7.4613 -32.0329,-3.8786 v 6.452 c 8.2783,-1.7492 9.2854,-2.4934 17.3823,-2.4934 2.8877,0 5.2501,2.3089 5.2501,5.1311 v 9.1423 c -2.8608,-1.4276 -6.0855,-1.7234 -9.2424,-1.6982 -18.2676,0.1465 -17.0578,24.5278 -6.4176,29.1904 5.5017,2.4111 14.0014,1.7331 19.2265,0.4554 z m -3.5665,-21.697 v 13.1207 c 0,1.9756 -1.6538,3.5918 -3.6752,3.5918 h -3.0872 c -6.2952,0 -7.6303,-5.8785 -7.2354,-11.1464 0.7583,-10.1167 13.9978,-9.3247 13.9978,-5.5661 z"
         inkscape:connector-curvature="0" />
      <path
         id="path26"
         style="fill:#3a3a3a;fill-rule:evenodd"
         d="m 213.6249,533.5362 h 9.4005 v -38.8503 h -9.4005 z"
         inkscape:connector-curvature="0" />
      <path
         id="path28"
         style="fill:#3a3a3a;fill-rule:evenodd"
         d="m 223.0254,491.1046 v 15.7317 c 0,2.0532 -1.6965,3.7497 -3.7497,3.7497 h -5.6508 v -16.4171 c 0,-6.6626 -15.4996,-4.9161 -15.4996,-1.1495 v 17.5666 h -5.6509 c -2.0542,0 -3.7496,-1.6872 -3.7496,-3.7497 v -12.897 c 0,-6.6249 33.8587,-20.2805 34.3006,-2.8347 z"
         inkscape:connector-curvature="0" />
      <path
         id="path30"
         style="fill:#3a3a3a;fill-rule:evenodd"
         d="m 271.6747,533.5362 h 9.4005 v -45.0043 h -9.4005 z"
         inkscape:connector-curvature="0" />
      <path
         id="path32"
         style="fill:#3a3a3a;fill-rule:evenodd"
         d="m 296.5748,533.5362 h 9.4005 v -38.8503 h -9.4005 z"
         inkscape:connector-curvature="0" />
      <path
         id="path34"
         style="fill:#3a3a3a;fill-rule:evenodd"
         d="m 305.9753,491.955 v 14.8813 c 0,2.0569 -1.6928,3.7497 -3.7496,3.7497 h -5.6509 v -16.4171 c 0,-6.6626 -15.4996,-4.9161 -15.4996,-1.1495 v 17.5666 h -5.6508 c -2.0611,0 -3.7497,-1.6872 -3.7497,-3.7497 v -19.1332 c 0,-5.2807 34.3006,-9.3722 34.3006,4.2519 z"
         inkscape:connector-curvature="0" />
      <path
         id="path36"
         style="fill:#3a3a3a;fill-rule:evenodd"
         d="m 393.2586,482.7393 h -9.4005 v 45.0043 h 9.4005 z"
         inkscape:connector-curvature="0" />
      <path
         id="path38"
         style="fill:#3a3a3a;fill-rule:evenodd"
         d="m 368.3585,482.7393 h -9.4005 v 38.8502 h 9.4005 z"
         inkscape:connector-curvature="0" />
      <path
         id="path40"
         style="fill:#3a3a3a;fill-rule:evenodd"
         d="m 358.958,524.3204 v -14.8813 c 0,-2.0568 1.6928,-3.7497 3.7497,-3.7497 h 5.6508 v 17.551 c 0,6.6626 15.4996,4.915 15.4996,1.1495 v -18.7005 h 5.6508 c 2.0611,0 3.7497,1.6872 3.7497,3.7497 v 19.1333 c 0,5.2807 -34.3006,9.3722 -34.3006,-4.252 z"
         inkscape:connector-curvature="0" />
      <path
         id="path42"
         style="fill:#3a3a3a;fill-rule:evenodd"
         d="m 444.1748,533.5362 h 9.4005 v -45.0043 h -9.4005 z"
         inkscape:connector-curvature="0" />
      <path
         id="path44"
         style="fill:#3a3a3a;fill-rule:evenodd"
         d="m 464.1437,490.218 c -4.5711,-1.4406 -10.5684,0.1978 -10.5684,2.8014 v 17.5666 h -5.6508 c -2.0605,0 -3.7497,-1.6872 -3.7497,-3.7497 V 488.27 c 0,-2.5328 7.8905,-5.3586 16.1014,-5.5191 5.2109,-0.1017 7.6501,0.0179 7.6501,4.8118 v 1.0412 c 0,4.1233 -1.0052,2.4891 -3.7826,1.6141 z"
         inkscape:connector-curvature="0" />
      <path
         id="path46"
         style="fill:#3a3a3a;fill-rule:evenodd"
         d="m 498.2893,532.3792 c 2.5078,-0.6133 5.834,-2.6188 5.834,-5.1471 v -20.9476 -11.8751 -4.3312 c 0,-11.4956 -32.0329,-7.4613 -32.0329,-3.8786 v 6.452 c 8.2783,-1.7492 9.2854,-2.4934 17.3823,-2.4934 2.8877,0 5.2501,2.3089 5.2501,5.1311 v 9.1423 c -2.8608,-1.4276 -6.0854,-1.7234 -9.2424,-1.6982 -18.2676,0.1465 -17.0578,24.5278 -6.4176,29.1904 5.5017,2.4111 14.0014,1.7331 19.2265,0.4554 z m -3.5665,-21.697 v 13.1207 c 0,1.9756 -1.6538,3.5918 -3.6751,3.5918 h -3.0873 c -6.2951,0 -7.6303,-5.8785 -7.2354,-11.1464 0.7583,-10.1167 13.9978,-9.3247 13.9978,-5.5661 z"
         inkscape:connector-curvature="0" />
      <path
         id="path48"
         style="fill:#3a3a3a;fill-rule:evenodd"
         d="m 411.0029,511.6885 c 0,12.8612 8.9337,17.6056 21.2375,12.8954 4.0436,-1.548 3.0421,-3.3837 3.4336,2.1948 0.6568,9.3553 -37.6274,14.0264 -34.0251,-20.9149 3.2048,-31.0992 34.5305,-28.1199 34.9682,-7.9989 0.0876,4.0243 0.0859,8.5589 -0.5885,10.9304 -0.7997,2.8134 -3.0847,2.8932 -7.3987,2.8932 z m 15.7731,-5.3462 c -0.9008,0.6906 -3.1864,0.4056 -6.6458,0.4056 h -9.1324 c 0.009,-4.4394 0.8241,-13.5724 5.8045,-16.4197 5.8799,-3.3615 9.9227,0.7614 10.8584,5.9233 0.3042,1.6774 0.5049,9.026 -0.8847,10.0908 z"
         inkscape:connector-curvature="0" />
      <path
         id="path50"
         style="fill:#3a3a3a;fill-rule:evenodd"
         d="m 351.1074,485.0872 c -5.0635,-2.3139 -30.0591,-6.3124 -35.9875,9.0684 -3.1238,8.1051 -2.9976,27.9048 4.7064,34.844 3.1374,2.8258 7.5512,4.5366 12.2309,4.5366 4.6491,-0.1727 7.8486,-0.8263 9.599,-1.9608 -0.0729,0.7223 -0.1551,1.3757 -0.2469,1.9608 -1.9239,12.6915 -9.7175,18.3373 -23.381,16.9372 -0.7013,5.6285 1.3736,8.0536 6.2251,7.2752 15.1988,-1.2263 26.854,-10.9976 26.854,-26.9252 z m -9.7526,5.4624 c -6.9763,0 -12.9294,-1.7453 -16.4599,5.8147 -3.6204,7.7525 -3.2267,21.1901 1.5137,27.1678 3.4498,4.3512 14.9462,4.7543 14.9462,-2.0072 z"
         inkscape:connector-curvature="0" />
    </g>
  </g>
  <g
     transform="matrix(0.49820325,0,0,0.49820325,26.235318,-214.26917)"
     id="Layer1001-2"
     inkscape:export-filename="C:\Users\suitedoalex\sites\anhanguera-logo-14.png"
     inkscape:export-xdpi="17.3433"
     inkscape:export-ydpi="17.3433">
    <path
       inkscape:connector-curvature="0"
       id="path12-6"
       style="fill:#3a3a3a;fill-rule:evenodd"
       d="m 140.8351,533.5362 h -9.4232 l -15.4182,-53.5927 -15.4182,53.5927 h -9.4232 l 20.1297,-69.9699 0.9294,-3.2303 h 7.5646 l 0.9292,3.2303 z" />
    <path
       inkscape:connector-curvature="0"
       id="path14-5"
       style="fill:#3a3a3a;fill-rule:evenodd"
       d="m 102.0753,516.361 v -7.3499 h 27.15 v 7.3499 z" />
    <path
       inkscape:connector-curvature="0"
       id="path16-4"
       style="fill:#3a3a3a;fill-rule:evenodd"
       d="m 145.6747,533.5362 h 9.4005 v -45.0043 h -9.4005 z" />
    <path
       inkscape:connector-curvature="0"
       id="path18-0"
       style="fill:#3a3a3a;fill-rule:evenodd"
       d="m 170.5748,533.5362 h 9.4005 v -38.8503 h -9.4005 z" />
    <path
       inkscape:connector-curvature="0"
       id="path20-7"
       style="fill:#3a3a3a;fill-rule:evenodd"
       d="m 179.9753,491.955 v 14.8813 c 0,2.0569 -1.6928,3.7497 -3.7496,3.7497 h -5.6509 v -16.4171 c 0,-6.6626 -15.4996,-4.9161 -15.4996,-1.1495 v 17.5666 h -5.6508 c -2.0611,0 -3.7497,-1.6872 -3.7497,-3.7497 v -19.1332 c 0,-5.2807 34.3006,-9.3722 34.3006,4.2519 z" />
    <path
       inkscape:connector-curvature="0"
       id="path22-0"
       style="fill:#3a3a3a;fill-rule:evenodd"
       d="m 188.7248,533.5362 h 9.4005 V 460.336 h -5.8034 c -1.9786,0 -3.5971,1.6177 -3.5971,3.5971 z" />
    <path
       inkscape:connector-curvature="0"
       id="path24-3"
       style="fill:#3a3a3a;fill-rule:evenodd"
       d="m 256.7914,532.3792 c 2.5078,-0.6133 5.834,-2.6188 5.834,-5.1471 v -20.9476 -11.8751 -4.3312 c 0,-11.4956 -32.0329,-7.4613 -32.0329,-3.8786 v 6.452 c 8.2783,-1.7492 9.2854,-2.4934 17.3823,-2.4934 2.8877,0 5.2501,2.3089 5.2501,5.1311 v 9.1423 c -2.8608,-1.4276 -6.0855,-1.7234 -9.2424,-1.6982 -18.2676,0.1465 -17.0578,24.5278 -6.4176,29.1904 5.5017,2.4111 14.0014,1.7331 19.2265,0.4554 z m -3.5665,-21.697 v 13.1207 c 0,1.9756 -1.6538,3.5918 -3.6752,3.5918 h -3.0872 c -6.2952,0 -7.6303,-5.8785 -7.2354,-11.1464 0.7583,-10.1167 13.9978,-9.3247 13.9978,-5.5661 z" />
    <path
       inkscape:connector-curvature="0"
       id="path26-7"
       style="fill:#3a3a3a;fill-rule:evenodd"
       d="m 213.6249,533.5362 h 9.4005 v -38.8503 h -9.4005 z" />
    <path
       inkscape:connector-curvature="0"
       id="path28-3"
       style="fill:#3a3a3a;fill-rule:evenodd"
       d="m 223.0254,491.1046 v 15.7317 c 0,2.0532 -1.6965,3.7497 -3.7497,3.7497 h -5.6508 v -16.4171 c 0,-6.6626 -15.4996,-4.9161 -15.4996,-1.1495 v 17.5666 h -5.6509 c -2.0542,0 -3.7496,-1.6872 -3.7496,-3.7497 v -12.897 c 0,-6.6249 33.8587,-20.2805 34.3006,-2.8347 z" />
    <path
       inkscape:connector-curvature="0"
       id="path30-2"
       style="fill:#3a3a3a;fill-rule:evenodd"
       d="m 271.6747,533.5362 h 9.4005 v -45.0043 h -9.4005 z" />
    <path
       inkscape:connector-curvature="0"
       id="path32-3"
       style="fill:#3a3a3a;fill-rule:evenodd"
       d="m 296.5748,533.5362 h 9.4005 v -38.8503 h -9.4005 z" />
    <path
       inkscape:connector-curvature="0"
       id="path34-8"
       style="fill:#3a3a3a;fill-rule:evenodd"
       d="m 305.9753,491.955 v 14.8813 c 0,2.0569 -1.6928,3.7497 -3.7496,3.7497 h -5.6509 v -16.4171 c 0,-6.6626 -15.4996,-4.9161 -15.4996,-1.1495 v 17.5666 h -5.6508 c -2.0611,0 -3.7497,-1.6872 -3.7497,-3.7497 v -19.1332 c 0,-5.2807 34.3006,-9.3722 34.3006,4.2519 z" />
    <path
       inkscape:connector-curvature="0"
       id="path36-1"
       style="fill:#3a3a3a;fill-rule:evenodd"
       d="m 393.2586,482.7393 h -9.4005 v 45.0043 h 9.4005 z" />
    <path
       inkscape:connector-curvature="0"
       id="path38-7"
       style="fill:#3a3a3a;fill-rule:evenodd"
       d="m 368.3585,482.7393 h -9.4005 v 38.8502 h 9.4005 z" />
    <path
       inkscape:connector-curvature="0"
       id="path40-8"
       style="fill:#3a3a3a;fill-rule:evenodd"
       d="m 358.958,524.3204 v -14.8813 c 0,-2.0568 1.6928,-3.7497 3.7497,-3.7497 h 5.6508 v 17.551 c 0,6.6626 15.4996,4.915 15.4996,1.1495 v -18.7005 h 5.6508 c 2.0611,0 3.7497,1.6872 3.7497,3.7497 v 19.1333 c 0,5.2807 -34.3006,9.3722 -34.3006,-4.252 z" />
    <path
       inkscape:connector-curvature="0"
       id="path42-6"
       style="fill:#3a3a3a;fill-rule:evenodd"
       d="m 444.1748,533.5362 h 9.4005 v -45.0043 h -9.4005 z" />
    <path
       inkscape:connector-curvature="0"
       id="path44-9"
       style="fill:#3a3a3a;fill-rule:evenodd"
       d="m 464.1437,490.218 c -4.5711,-1.4406 -10.5684,0.1978 -10.5684,2.8014 v 17.5666 h -5.6508 c -2.0605,0 -3.7497,-1.6872 -3.7497,-3.7497 V 488.27 c 0,-2.5328 7.8905,-5.3586 16.1014,-5.5191 5.2109,-0.1017 7.6501,0.0179 7.6501,4.8118 v 1.0412 c 0,4.1233 -1.0052,2.4891 -3.7826,1.6141 z" />
    <path
       inkscape:connector-curvature="0"
       id="path46-4"
       style="fill:#3a3a3a;fill-rule:evenodd"
       d="m 498.2893,532.3792 c 2.5078,-0.6133 5.834,-2.6188 5.834,-5.1471 v -20.9476 -11.8751 -4.3312 c 0,-11.4956 -32.0329,-7.4613 -32.0329,-3.8786 v 6.452 c 8.2783,-1.7492 9.2854,-2.4934 17.3823,-2.4934 2.8877,0 5.2501,2.3089 5.2501,5.1311 v 9.1423 c -2.8608,-1.4276 -6.0854,-1.7234 -9.2424,-1.6982 -18.2676,0.1465 -17.0578,24.5278 -6.4176,29.1904 5.5017,2.4111 14.0014,1.7331 19.2265,0.4554 z m -3.5665,-21.697 v 13.1207 c 0,1.9756 -1.6538,3.5918 -3.6751,3.5918 h -3.0873 c -6.2951,0 -7.6303,-5.8785 -7.2354,-11.1464 0.7583,-10.1167 13.9978,-9.3247 13.9978,-5.5661 z" />
    <path
       inkscape:connector-curvature="0"
       id="path48-2"
       style="fill:#3a3a3a;fill-rule:evenodd"
       d="m 411.0029,511.6885 c 0,12.8612 8.9337,17.6056 21.2375,12.8954 4.0436,-1.548 3.0421,-3.3837 3.4336,2.1948 0.6568,9.3553 -37.6274,14.0264 -34.0251,-20.9149 3.2048,-31.0992 34.5305,-28.1199 34.9682,-7.9989 0.0876,4.0243 0.0859,8.5589 -0.5885,10.9304 -0.7997,2.8134 -3.0847,2.8932 -7.3987,2.8932 z m 15.7731,-5.3462 c -0.9008,0.6906 -3.1864,0.4056 -6.6458,0.4056 h -9.1324 c 0.009,-4.4394 0.8241,-13.5724 5.8045,-16.4197 5.8799,-3.3615 9.9227,0.7614 10.8584,5.9233 0.3042,1.6774 0.5049,9.026 -0.8847,10.0908 z" />
    <path
       inkscape:connector-curvature="0"
       id="path50-5"
       style="fill:#3a3a3a;fill-rule:evenodd"
       d="m 351.1074,485.0872 c -5.0635,-2.3139 -30.0591,-6.3124 -35.9875,9.0684 -3.1238,8.1051 -2.9976,27.9048 4.7064,34.844 3.1374,2.8258 7.5512,4.5366 12.2309,4.5366 4.6491,-0.1727 7.8486,-0.8263 9.599,-1.9608 -0.0729,0.7223 -0.1551,1.3757 -0.2469,1.9608 -1.9239,12.6915 -9.7175,18.3373 -23.381,16.9372 -0.7013,5.6285 1.3736,8.0536 6.2251,7.2752 15.1988,-1.2263 26.854,-10.9976 26.854,-26.9252 z m -9.7526,5.4624 c -6.9763,0 -12.9294,-1.7453 -16.4599,5.8147 -3.6204,7.7525 -3.2267,21.1901 1.5137,27.1678 3.4498,4.3512 14.9462,4.7543 14.9462,-2.0072 z" />
  </g>
  <path
     inkscape:connector-curvature="0"
     id="path2-8"
     style="fill:#ffffff;fill-rule:evenodd;stroke-width:0.38987508"
     d="m 51.506332,34.774821 v -5.146272 h 10.526624 v 5.146272 z"
     inkscape:export-filename="C:\Users\suitedoalex\sites\anhanguera-logo-14.png"
     inkscape:export-xdpi="17.3433"
     inkscape:export-ydpi="17.3433" />
  <path
     inkscape:connector-curvature="0"
     id="path4-6"
     style="fill:#e74114;fill-rule:evenodd;stroke-width:0.38987508"
     d="m 63.03201,48.815427 c 0.928998,1.867931 6.076515,11.078885 6.552475,12.764471 0.23872,0.845522 -0.92225,2.057448 -2.28779,2.095461 H 35.058476 2.913784 c -3.998481,0 -1.888048,-4.889423 -0.164565,-5.260662 9.040968,-2.959931 18.50031,-5.344759 28.077631,-7.160289 9.972264,-1.890271 19.863863,-3.057205 29.776715,-3.727596 l -1.26e-4,-0.0023 c 1.219099,-0.08241 2.051053,0.531906 2.428571,1.290954 z"
     inkscape:export-filename="C:\Users\suitedoalex\sites\anhanguera-logo-14.png"
     inkscape:export-xdpi="17.3433"
     inkscape:export-ydpi="17.3433" />
  <path
     inkscape:connector-curvature="0"
     id="path6-5"
     style="fill:#f49200;fill-rule:evenodd;stroke-width:0.38987508"
     d="M 22.468981,21.383081 C 26.043395,14.419483 29.762804,7.6151494 33.496013,0.72328939 l -0.0031,-0.0047 c 0.372876,-0.6693 1.559383,-0.914961 2.240924,-0.548828 0.282581,0.151739 0.490814,0.384923 0.611362,0.653587 l 6.115504,10.02918461 0.0044,-0.0023 c 0.372876,0.66926 0.122655,1.508855 -0.55877,1.874988 -0.08601,0.04619 -0.174858,0.08246 -0.264803,0.109632 -7.270078,2.62842 -12.353776,4.293109 -19.172496,8.548401 z"
     inkscape:export-filename="C:\Users\suitedoalex\sites\anhanguera-logo-14.png"
     inkscape:export-xdpi="17.3433"
     inkscape:export-ydpi="17.3433" />
  <path
     inkscape:connector-curvature="0"
     id="path8-8"
     style="fill:#ea5a0e;fill-rule:evenodd;stroke-width:0.38987508"
     d="m 29.238967,36.543647 c -1.907853,3.702949 -3.735978,7.590667 -6.063882,11.311284 -0.442313,0.70696 -1.450883,2.272854 -2.383502,2.442294 C 15.318166,51.619409 9.9375,53.134931 4.478352,54.432513 4.789005,53.003737 8.2856,46.696924 9.252061,45.314506 c 0.897414,-1.283665 1.489207,-1.756856 2.423619,-2.189891 4.842366,-2.244238 12.206676,-5.351498 17.563287,-6.580968 z m 24.079698,-4.152755 c 2.305181,3.2307 4.43136,6.729979 6.424947,10.428919 l 0.0046,-0.0023 c 0.37287,0.6693 0.122645,1.508896 -0.558894,1.875028 -0.202925,0.108967 -0.421181,0.163668 -0.637439,0.169205 -1.88509,0.144994 -4.23873,0.301256 -5.954057,0.468553 -1.718534,0.167567 -3.856218,0.142927 -5.749375,0.36769 l 1.17e-4,0.0011 c -0.631051,0.07494 -1.43626,-0.273068 -1.678723,-0.816905 l -5.44289,-9.459728 -0.0046,0.0023 c -0.372759,-0.6693 -0.343675,-1.398365 0.337867,-1.764496 0.146632,-0.07879 0.301022,-0.129205 0.457323,-0.153182 1.750656,-0.391904 4.351745,-0.752499 6.03394,-1.08128 1.710226,-0.334435 3.458465,-0.540211 5.244289,-0.838153 l -3.91e-4,-0.0027 c 0.64915,-0.108187 1.27002,0.239267 1.523321,0.805638 z"
     inkscape:export-filename="C:\Users\suitedoalex\sites\anhanguera-logo-14.png"
     inkscape:export-xdpi="17.3433"
     inkscape:export-ydpi="17.3433" />
  <path
     inkscape:connector-curvature="0"
     id="path10-2"
     style="fill:#ee7105;fill-rule:evenodd;stroke-width:0.38987508"
     d="m 45.131991,16.39771 6.054175,10.666982 0.0044,-0.0023 c 0.442741,0.910319 0.241059,1.470413 -1.10748,1.707575 -12.597137,1.708705 -27.371881,5.676308 -37.709615,10.574264 0.862366,-2.131949 5.918459,-11.443373 8.255294,-13.242452 4.632537,-3.566088 19.559023,-9.928265 22.73857,-10.440521 l -7.8e-4,-0.0039 c 0.699904,-0.248896 1.469635,0.08132 1.765472,0.740335 z"
     inkscape:export-filename="C:\Users\suitedoalex\sites\anhanguera-logo-14.png"
     inkscape:export-xdpi="17.3433"
     inkscape:export-ydpi="17.3433" />
  <text
     xml:space="preserve"
     style="font-style:normal;font-weight:normal;font-size:24.83587646px;line-height:1.25;font-family:sans-serif;letter-spacing:0px;word-spacing:0px;fill:#000000;fill-opacity:1;stroke:none;stroke-width:0.58209085"
     x="-2.4375055"
     y="383.49158"
     id="text4805"><tspan
       sodipodi:role="line"
       id="tspan4803"
       x="-2.4375055"
       y="383.49158"
       style="stroke-width:0.58209085">LOGODOWNLOAD.ORG</tspan></text>
</svg>
